<svg id="visual" viewBox="0 0 900 600" width="900" height="600" xmlns="http://www.w3.org/2000/svg" xmlns:xlink="http://www.w3.org/1999/xlink" version="1.1"><rect x="0" y="0" width="900" height="600" fill="#140021"></rect><path d="M0 339L113 339L113 264L225 264L225 375L338 375L338 270L450 270L450 329L563 329L563 250L675 250L675 287L788 287L788 281L900 281L900 290L900 601L900 601L788 601L788 601L675 601L675 601L563 601L563 601L450 601L450 601L338 601L338 601L225 601L225 601L113 601L113 601L0 601Z" fill="#560090"></path><path d="M0 368L113 368L113 325L225 325L225 369L338 369L338 341L450 341L450 382L563 382L563 312L675 312L675 381L788 381L788 348L900 348L900 353L900 601L900 601L788 601L788 601L675 601L675 601L563 601L563 601L450 601L450 601L338 601L338 601L225 601L225 601L113 601L113 601L0 601Z" fill="#7b2bb4"></path><path d="M0 418L113 418L113 448L225 448L225 417L338 417L338 379L450 379L450 385L563 385L563 484L675 484L675 394L788 394L788 447L900 447L900 380L900 601L900 601L788 601L788 601L675 601L675 601L563 601L563 601L450 601L450 601L338 601L338 601L225 601L225 601L113 601L113 601L0 601Z" fill="#9f4dd8"></path><path d="M0 464L113 464L113 542L225 542L225 490L338 490L338 506L450 506L450 465L563 465L563 480L675 480L675 461L788 461L788 457L900 457L900 528L900 601L900 601L788 601L788 601L675 601L675 601L563 601L563 601L450 601L450 601L338 601L338 601L225 601L225 601L113 601L113 601L0 601Z" fill="#c56efe"></path></svg>