<svg id="visual" viewBox="0 0 900 1400" width="900" height="1400" xmlns="http://www.w3.org/2000/svg" xmlns:xlink="http://www.w3.org/1999/xlink" version="1.1"><rect x="0" y="0" width="900" height="1400" fill="#140021"></rect><path d="M0 694L90 694L90 349L180 349L180 324L270 324L270 550L360 550L360 362L450 362L450 471L540 471L540 700L630 700L630 392L720 392L720 330L810 330L810 418L900 418L900 700L900 1401L900 1401L810 1401L810 1401L720 1401L720 1401L630 1401L630 1401L540 1401L540 1401L450 1401L450 1401L360 1401L360 1401L270 1401L270 1401L180 1401L180 1401L90 1401L90 1401L0 1401Z" fill="#9900ff"></path><path d="M0 566L90 566L90 545L180 545L180 502L270 502L270 441L360 441L360 469L450 469L450 831L540 831L540 813L630 813L630 802L720 802L720 540L810 540L810 838L900 838L900 594L900 1401L900 1401L810 1401L810 1401L720 1401L720 1401L630 1401L630 1401L540 1401L540 1401L450 1401L450 1401L360 1401L360 1401L270 1401L270 1401L180 1401L180 1401L90 1401L90 1401L0 1401Z" fill="#af2bfa"></path><path d="M0 743L90 743L90 658L180 658L180 807L270 807L270 610L360 610L360 612L450 612L450 889L540 889L540 599L630 599L630 705L720 705L720 738L810 738L810 656L900 656L900 765L900 1401L900 1401L810 1401L810 1401L720 1401L720 1401L630 1401L630 1401L540 1401L540 1401L450 1401L450 1401L360 1401L360 1401L270 1401L270 1401L180 1401L180 1401L90 1401L90 1401L0 1401Z" fill="#c145f6"></path><path d="M0 879L90 879L90 766L180 766L180 1027L270 1027L270 891L360 891L360 952L450 952L450 1022L540 1022L540 951L630 951L630 838L720 838L720 780L810 780L810 1045L900 1045L900 997L900 1401L900 1401L810 1401L810 1401L720 1401L720 1401L630 1401L630 1401L540 1401L540 1401L450 1401L450 1401L360 1401L360 1401L270 1401L270 1401L180 1401L180 1401L90 1401L90 1401L0 1401Z" fill="#d05bf3"></path><path d="M0 946L90 946L90 1038L180 1038L180 1044L270 1044L270 887L360 887L360 864L450 864L450 1174L540 1174L540 957L630 957L630 913L720 913L720 1108L810 1108L810 863L900 863L900 842L900 1401L900 1401L810 1401L810 1401L720 1401L720 1401L630 1401L630 1401L540 1401L540 1401L450 1401L450 1401L360 1401L360 1401L270 1401L270 1401L180 1401L180 1401L90 1401L90 1401L0 1401Z" fill="#dc70f0"></path><path d="M0 1099L90 1099L90 1141L180 1141L180 1093L270 1093L270 1136L360 1136L360 1280L450 1280L450 1145L540 1145L540 1220L630 1220L630 1171L720 1171L720 1063L810 1063L810 1259L900 1259L900 1161L900 1401L900 1401L810 1401L810 1401L720 1401L720 1401L630 1401L630 1401L540 1401L540 1401L450 1401L450 1401L360 1401L360 1401L270 1401L270 1401L180 1401L180 1401L90 1401L90 1401L0 1401Z" fill="#e685ef"></path><path d="M0 1356L90 1356L90 1357L180 1357L180 1195L270 1195L270 1230L360 1230L360 1307L450 1307L450 1335L540 1335L540 1267L630 1267L630 1123L720 1123L720 1137L810 1137L810 1130L900 1130L900 1225L900 1401L900 1401L810 1401L810 1401L720 1401L720 1401L630 1401L630 1401L540 1401L540 1401L450 1401L450 1401L360 1401L360 1401L270 1401L270 1401L180 1401L180 1401L90 1401L90 1401L0 1401Z" fill="#ee99ee"></path></svg>