<svg id="visual" viewBox="0 0 960 540" width="960" height="540" xmlns="http://www.w3.org/2000/svg" xmlns:xlink="http://www.w3.org/1999/xlink" version="1.1"><g stroke-width="1" stroke-linejoin="bevel"><path d="M546 155L590 0L358 0Z" fill="#067d40" stroke="#067d40"></path><path d="M358 0L357 205L546 155Z" fill="#00411e" stroke="#00411e"></path><path d="M358 0L231 162L357 205Z" fill="#04733a" stroke="#04733a"></path><path d="M358 0L163 0L231 162Z" fill="#0fa958" stroke="#0fa958"></path><path d="M357 205L594 343L546 155Z" fill="#036934" stroke="#036934"></path><path d="M797 199L796 0L590 0Z" fill="#004b23" stroke="#004b23"></path><path d="M363 354L594 343L357 205Z" fill="#04733a" stroke="#04733a"></path><path d="M222 372L363 354L357 205Z" fill="#00411e" stroke="#00411e"></path><path d="M797 199L590 0L546 155Z" fill="#00411e" stroke="#00411e"></path><path d="M594 343L797 199L546 155Z" fill="#0c9e52" stroke="#0c9e52"></path><path d="M0 188L222 372L231 162Z" fill="#015429" stroke="#015429"></path><path d="M231 162L222 372L357 205Z" fill="#067d40" stroke="#067d40"></path><path d="M550 540L756 360L594 343Z" fill="#004b23" stroke="#004b23"></path><path d="M550 540L594 343L363 354Z" fill="#0c9e52" stroke="#0c9e52"></path><path d="M594 343L756 360L797 199Z" fill="#004b23" stroke="#004b23"></path><path d="M163 0L0 188L231 162Z" fill="#036934" stroke="#036934"></path><path d="M960 212L960 0L797 199Z" fill="#004b23" stroke="#004b23"></path><path d="M797 199L960 0L796 0Z" fill="#04733a" stroke="#04733a"></path><path d="M0 0L0 188L163 0Z" fill="#004b23" stroke="#004b23"></path><path d="M393 540L550 540L363 354Z" fill="#00411e" stroke="#00411e"></path><path d="M222 372L393 540L363 354Z" fill="#015429" stroke="#015429"></path><path d="M194 540L393 540L222 372Z" fill="#0c9e52" stroke="#0c9e52"></path><path d="M960 340L960 212L797 199Z" fill="#036934" stroke="#036934"></path><path d="M960 340L797 199L756 360Z" fill="#025e2e" stroke="#025e2e"></path><path d="M0 359L194 540L222 372Z" fill="#036934" stroke="#036934"></path><path d="M0 188L0 359L222 372Z" fill="#0c9e52" stroke="#0c9e52"></path><path d="M778 540L960 340L756 360Z" fill="#0a934c" stroke="#0a934c"></path><path d="M550 540L778 540L756 360Z" fill="#078846" stroke="#078846"></path><path d="M0 359L0 540L194 540Z" fill="#004b23" stroke="#004b23"></path><path d="M778 540L960 540L960 340Z" fill="#004b23" stroke="#004b23"></path></g></svg>