<svg id="visual" viewBox="0 0 1400 600" width="1400" height="600" xmlns="http://www.w3.org/2000/svg" xmlns:xlink="http://www.w3.org/1999/xlink" version="1.1"><rect x="0" y="0" width="1400" height="600" fill="#9b001a"></rect><path d="M0 400L200 449L400 423L600 422L800 447L1000 446L1200 428L1400 407L1400 601L1200 601L1000 601L800 601L600 601L400 601L200 601L0 601Z" fill="#b9001f"></path><path d="M0 444L200 491L400 453L600 480L800 437L1000 434L1200 470L1400 482L1400 601L1200 601L1000 601L800 601L600 601L400 601L200 601L0 601Z" fill="#d34516"></path><path d="M0 486L200 498L400 512L600 485L800 480L1000 516L1200 514L1400 471L1400 601L1200 601L1000 601L800 601L600 601L400 601L200 601L0 601Z" fill="#e87202"></path><path d="M0 521L200 515L400 510L600 513L800 522L1000 508L1200 553L1400 549L1400 601L1200 601L1000 601L800 601L600 601L400 601L200 601L0 601Z" fill="#f79d00"></path><path d="M0 576L200 560L400 551L600 570L800 562L1000 542L1200 542L1400 573L1400 601L1200 601L1000 601L800 601L600 601L400 601L200 601L0 601Z" fill="#ffc900"></path></svg>