<svg id="visual" viewBox="0 0 900 600" width="900" height="600" xmlns="http://www.w3.org/2000/svg" xmlns:xlink="http://www.w3.org/1999/xlink" version="1.1"><rect x="0" y="0" width="900" height="600" fill="#C02942"></rect><path d="M0 371L129 447L257 432L386 440L514 426L643 383L771 386L900 370L900 601L771 601L643 601L514 601L386 601L257 601L129 601L0 601Z" fill="#ac243b"></path><path d="M0 465L129 395L257 413L386 478L514 425L643 406L771 399L900 443L900 601L771 601L643 601L514 601L386 601L257 601L129 601L0 601Z" fill="#9a2035"></path><path d="M0 489L129 463L257 492L386 458L514 462L643 489L771 443L900 494L900 601L771 601L643 601L514 601L386 601L257 601L129 601L0 601Z" fill="#881d2f"></path><path d="M0 539L129 518L257 482L386 506L514 511L643 530L771 533L900 535L900 601L771 601L643 601L514 601L386 601L257 601L129 601L0 601Z" fill="#771929"></path><path d="M0 551L129 565L257 571L386 552L514 544L643 538L771 539L900 566L900 601L771 601L643 601L514 601L386 601L257 601L129 601L0 601Z" fill="#661623"></path></svg>