<svg id="visual" viewBox="0 0 1400 600" width="1400" height="600" xmlns="http://www.w3.org/2000/svg" xmlns:xlink="http://www.w3.org/1999/xlink" version="1.1"><rect x="0" y="0" width="1400" height="600" fill="#ffc900"></rect><path d="M600 0L639 50C678 100 756 200 769.7 300C783.3 400 732.7 500 707.3 550L682 600L0 600L0 550C0 500 0 400 0 300C0 200 0 100 0 50L0 0Z" fill="#cc0022"></path><path d="M388 0L388.3 50C388.7 100 389.3 200 403.2 300C417 400 444 500 457.5 550L471 600L0 600L0 550C0 500 0 400 0 300C0 200 0 100 0 50L0 0Z" fill="#cc0022"></path></svg>